<mxfile host="65bd71144e">
    <diagram id="S15d3HwmhVSJBh-RPACC" name="第 1 页">
        <mxGraphModel dx="1481" dy="357" grid="1" gridSize="10" guides="1" tooltips="1" connect="1" arrows="1" fold="1" page="1" pageScale="1" pageWidth="827" pageHeight="1169" math="0" shadow="0">
            <root>
                <mxCell id="0"/>
                <mxCell id="1" parent="0"/>
                <mxCell id="13" value="" style="group" parent="1" vertex="1" connectable="0">
                    <mxGeometry x="-455" y="320" width="200" height="150" as="geometry"/>
                </mxCell>
                <mxCell id="14" value="2" style="ellipse;whiteSpace=wrap;html=1;aspect=fixed;fontSize=16;" parent="13" vertex="1">
                    <mxGeometry x="65" y="10" width="60" height="60" as="geometry"/>
                </mxCell>
                <mxCell id="15" value="" style="endArrow=classic;html=1;fontSize=16;exitX=0;exitY=1;exitDx=0;exitDy=0;" parent="13" source="14" edge="1">
                    <mxGeometry width="50" height="50" relative="1" as="geometry">
                        <mxPoint x="45" y="180" as="sourcePoint"/>
                        <mxPoint y="120" as="targetPoint"/>
                    </mxGeometry>
                </mxCell>
                <mxCell id="16" value="" style="endArrow=classic;html=1;fontSize=16;exitX=0.5;exitY=1;exitDx=0;exitDy=0;" parent="13" source="14" edge="1">
                    <mxGeometry width="50" height="50" relative="1" as="geometry">
                        <mxPoint x="55" y="320" as="sourcePoint"/>
                        <mxPoint x="95" y="120" as="targetPoint"/>
                    </mxGeometry>
                </mxCell>
                <mxCell id="18" value="(" style="whiteSpace=wrap;html=1;aspect=fixed;fontSize=16;" parent="13" vertex="1">
                    <mxGeometry x="-5" y="130" width="50" height="50" as="geometry"/>
                </mxCell>
                <mxCell id="19" value=")" style="whiteSpace=wrap;html=1;aspect=fixed;fontSize=16;" parent="13" vertex="1">
                    <mxGeometry x="70" y="130" width="50" height="50" as="geometry"/>
                </mxCell>
                <mxCell id="30" value="" style="endArrow=classic;html=1;fontSize=16;" parent="13" edge="1">
                    <mxGeometry width="50" height="50" relative="1" as="geometry">
                        <mxPoint x="110" y="120" as="sourcePoint"/>
                        <mxPoint x="110" y="70" as="targetPoint"/>
                    </mxGeometry>
                </mxCell>
                <mxCell id="31" value="回溯" style="edgeLabel;html=1;align=center;verticalAlign=middle;resizable=0;points=[];fontSize=12;" parent="30" vertex="1" connectable="0">
                    <mxGeometry x="-0.1226" y="-1" relative="1" as="geometry">
                        <mxPoint x="-3" y="-3" as="offset"/>
                    </mxGeometry>
                </mxCell>
                <mxCell id="27" value="" style="endArrow=classic;html=1;fontSize=16;" parent="13" edge="1">
                    <mxGeometry width="50" height="50" relative="1" as="geometry">
                        <mxPoint y="100" as="sourcePoint"/>
                        <mxPoint x="60" y="50" as="targetPoint"/>
                    </mxGeometry>
                </mxCell>
                <mxCell id="28" value="回溯" style="edgeLabel;html=1;align=center;verticalAlign=middle;resizable=0;points=[];fontSize=12;" parent="27" vertex="1" connectable="0">
                    <mxGeometry x="-0.1226" y="-1" relative="1" as="geometry">
                        <mxPoint x="-3" y="-3" as="offset"/>
                    </mxGeometry>
                </mxCell>
                <mxCell id="21" style="edgeStyle=none;html=1;exitX=0.5;exitY=1;exitDx=0;exitDy=0;entryX=0.5;entryY=0;entryDx=0;entryDy=0;fontSize=16;" parent="1" source="9" target="14" edge="1">
                    <mxGeometry relative="1" as="geometry"/>
                </mxCell>
                <mxCell id="23" value="&quot;(&quot;" style="text;html=1;strokeColor=none;fillColor=none;align=center;verticalAlign=middle;whiteSpace=wrap;rounded=0;fontSize=16;" parent="1" vertex="1">
                    <mxGeometry x="-410" y="290" width="60" height="30" as="geometry"/>
                </mxCell>
                <mxCell id="24" value="&quot;((&quot;" style="text;html=1;strokeColor=none;fillColor=none;align=center;verticalAlign=middle;whiteSpace=wrap;rounded=0;fontSize=16;" parent="1" vertex="1">
                    <mxGeometry x="-520" y="510" width="60" height="30" as="geometry"/>
                </mxCell>
                <mxCell id="25" value="&quot;()&quot;" style="text;html=1;strokeColor=none;fillColor=none;align=center;verticalAlign=middle;whiteSpace=wrap;rounded=0;fontSize=16;" parent="1" vertex="1">
                    <mxGeometry x="-390" y="500" width="60" height="30" as="geometry"/>
                </mxCell>
                <mxCell id="36" value="" style="endArrow=classic;html=1;fontSize=16;" parent="1" edge="1">
                    <mxGeometry width="50" height="50" relative="1" as="geometry">
                        <mxPoint x="-380" y="210" as="sourcePoint"/>
                        <mxPoint x="-320" y="160" as="targetPoint"/>
                    </mxGeometry>
                </mxCell>
                <mxCell id="37" value="回溯" style="edgeLabel;html=1;align=center;verticalAlign=middle;resizable=0;points=[];fontSize=12;container=0;" parent="36" vertex="1" connectable="0">
                    <mxGeometry x="-0.1226" y="-1" relative="1" as="geometry">
                        <mxPoint x="-3" y="-3" as="offset"/>
                    </mxGeometry>
                </mxCell>
                <mxCell id="38" value="&quot;&quot;：空串" style="text;html=1;strokeColor=none;fillColor=none;align=center;verticalAlign=middle;whiteSpace=wrap;rounded=0;fontSize=16;" parent="1" vertex="1">
                    <mxGeometry x="-320" y="80" width="80" height="30" as="geometry"/>
                </mxCell>
                <mxCell id="39" value="2" style="ellipse;whiteSpace=wrap;html=1;aspect=fixed;fontSize=16;" parent="1" vertex="1">
                    <mxGeometry x="-230" y="330" width="60" height="60" as="geometry"/>
                </mxCell>
                <mxCell id="40" value="" style="endArrow=classic;html=1;fontSize=16;exitX=1;exitY=1;exitDx=0;exitDy=0;" parent="1" source="39" edge="1">
                    <mxGeometry width="50" height="50" relative="1" as="geometry">
                        <mxPoint x="-475" y="200" as="sourcePoint"/>
                        <mxPoint x="-105" y="440" as="targetPoint"/>
                    </mxGeometry>
                </mxCell>
                <mxCell id="41" value="" style="endArrow=classic;html=1;fontSize=16;exitX=0.5;exitY=1;exitDx=0;exitDy=0;" parent="1" source="39" edge="1">
                    <mxGeometry width="50" height="50" relative="1" as="geometry">
                        <mxPoint x="-465" y="340" as="sourcePoint"/>
                        <mxPoint x="-200" y="440" as="targetPoint"/>
                    </mxGeometry>
                </mxCell>
                <mxCell id="42" value="(" style="whiteSpace=wrap;html=1;aspect=fixed;fontSize=16;" parent="1" vertex="1">
                    <mxGeometry x="-140" y="450" width="50" height="50" as="geometry"/>
                </mxCell>
                <mxCell id="43" value=")" style="whiteSpace=wrap;html=1;aspect=fixed;fontSize=16;" parent="1" vertex="1">
                    <mxGeometry x="-225" y="450" width="50" height="50" as="geometry"/>
                </mxCell>
                <mxCell id="44" value="" style="endArrow=classic;html=1;fontSize=16;" parent="1" edge="1">
                    <mxGeometry width="50" height="50" relative="1" as="geometry">
                        <mxPoint x="-185" y="440" as="sourcePoint"/>
                        <mxPoint x="-185" y="390" as="targetPoint"/>
                    </mxGeometry>
                </mxCell>
                <mxCell id="45" value="回溯" style="edgeLabel;html=1;align=center;verticalAlign=middle;resizable=0;points=[];fontSize=12;" parent="44" vertex="1" connectable="0">
                    <mxGeometry x="-0.1226" y="-1" relative="1" as="geometry">
                        <mxPoint x="-3" y="-3" as="offset"/>
                    </mxGeometry>
                </mxCell>
                <mxCell id="46" value="" style="endArrow=classic;html=1;fontSize=16;" parent="1" edge="1">
                    <mxGeometry width="50" height="50" relative="1" as="geometry">
                        <mxPoint x="-100" y="420" as="sourcePoint"/>
                        <mxPoint x="-150" y="380" as="targetPoint"/>
                    </mxGeometry>
                </mxCell>
                <mxCell id="47" value="回溯" style="edgeLabel;html=1;align=center;verticalAlign=middle;resizable=0;points=[];fontSize=12;" parent="46" vertex="1" connectable="0">
                    <mxGeometry x="-0.1226" y="-1" relative="1" as="geometry">
                        <mxPoint x="-3" y="-2" as="offset"/>
                    </mxGeometry>
                </mxCell>
                <mxCell id="48" value="&quot;)(&quot;" style="text;html=1;strokeColor=none;fillColor=none;align=center;verticalAlign=middle;whiteSpace=wrap;rounded=0;fontSize=16;" parent="1" vertex="1">
                    <mxGeometry x="-145" y="500" width="60" height="30" as="geometry"/>
                </mxCell>
                <mxCell id="49" value="&quot;))&quot;" style="text;html=1;strokeColor=none;fillColor=none;align=center;verticalAlign=middle;whiteSpace=wrap;rounded=0;fontSize=16;" parent="1" vertex="1">
                    <mxGeometry x="-230" y="500" width="60" height="30" as="geometry"/>
                </mxCell>
                <mxCell id="4" value="1" style="ellipse;whiteSpace=wrap;html=1;aspect=fixed;fontSize=16;container=0;" parent="1" vertex="1">
                    <mxGeometry x="-310" y="120" width="60" height="60" as="geometry"/>
                </mxCell>
                <mxCell id="6" value="" style="endArrow=classic;html=1;fontSize=16;exitX=0;exitY=1;exitDx=0;exitDy=0;entryX=0.5;entryY=0;entryDx=0;entryDy=0;" parent="1" source="4" target="9" edge="1">
                    <mxGeometry width="50" height="50" relative="1" as="geometry">
                        <mxPoint x="-330" y="290" as="sourcePoint"/>
                        <mxPoint x="-350" y="220" as="targetPoint"/>
                    </mxGeometry>
                </mxCell>
                <mxCell id="7" value="" style="endArrow=classic;html=1;fontSize=16;exitX=1;exitY=1;exitDx=0;exitDy=0;entryX=0.5;entryY=0;entryDx=0;entryDy=0;" parent="1" source="4" target="10" edge="1">
                    <mxGeometry width="50" height="50" relative="1" as="geometry">
                        <mxPoint x="-320" y="430" as="sourcePoint"/>
                        <mxPoint x="-280" y="220" as="targetPoint"/>
                    </mxGeometry>
                </mxCell>
                <mxCell id="9" value="(" style="whiteSpace=wrap;html=1;aspect=fixed;fontSize=16;container=0;" parent="1" vertex="1">
                    <mxGeometry x="-385" y="220" width="50" height="50" as="geometry"/>
                </mxCell>
                <mxCell id="51" value="" style="edgeStyle=none;html=1;entryX=0.5;entryY=0;entryDx=0;entryDy=0;" parent="1" source="10" target="39" edge="1">
                    <mxGeometry relative="1" as="geometry"/>
                </mxCell>
                <mxCell id="10" value=")" style="whiteSpace=wrap;html=1;aspect=fixed;fontSize=16;container=0;" parent="1" vertex="1">
                    <mxGeometry x="-225" y="220" width="50" height="50" as="geometry"/>
                </mxCell>
                <mxCell id="52" value="" style="endArrow=classic;html=1;fontSize=16;" parent="1" edge="1">
                    <mxGeometry width="50" height="50" relative="1" as="geometry">
                        <mxPoint x="-180" y="210" as="sourcePoint"/>
                        <mxPoint x="-240" y="160" as="targetPoint"/>
                    </mxGeometry>
                </mxCell>
                <mxCell id="53" value="回溯" style="edgeLabel;html=1;align=center;verticalAlign=middle;resizable=0;points=[];fontSize=12;" parent="52" vertex="1" connectable="0">
                    <mxGeometry x="-0.1226" y="-1" relative="1" as="geometry">
                        <mxPoint x="-3" y="-3" as="offset"/>
                    </mxGeometry>
                </mxCell>
                <mxCell id="54" value="&quot;)&quot;" style="text;html=1;strokeColor=none;fillColor=none;align=center;verticalAlign=middle;whiteSpace=wrap;rounded=0;fontSize=16;" parent="1" vertex="1">
                    <mxGeometry x="-210" y="291" width="60" height="30" as="geometry"/>
                </mxCell>
                <mxCell id="55" value="3" style="ellipse;whiteSpace=wrap;html=1;aspect=fixed;fontSize=16;" parent="1" vertex="1">
                    <mxGeometry x="-535" y="570" width="60" height="60" as="geometry"/>
                </mxCell>
                <mxCell id="56" value="" style="endArrow=classic;html=1;fontSize=16;exitX=0;exitY=1;exitDx=0;exitDy=0;" parent="1" source="55" edge="1">
                    <mxGeometry width="50" height="50" relative="1" as="geometry">
                        <mxPoint x="-780" y="440" as="sourcePoint"/>
                        <mxPoint x="-600" y="680" as="targetPoint"/>
                    </mxGeometry>
                </mxCell>
                <mxCell id="57" value="" style="endArrow=classic;html=1;fontSize=16;exitX=0.5;exitY=1;exitDx=0;exitDy=0;" parent="1" source="55" edge="1">
                    <mxGeometry width="50" height="50" relative="1" as="geometry">
                        <mxPoint x="-770" y="580" as="sourcePoint"/>
                        <mxPoint x="-505" y="680" as="targetPoint"/>
                    </mxGeometry>
                </mxCell>
                <mxCell id="82" style="edgeStyle=none;html=1;entryX=0.5;entryY=0;entryDx=0;entryDy=0;exitX=0.5;exitY=1;exitDx=0;exitDy=0;" parent="1" source="58" target="71" edge="1">
                    <mxGeometry relative="1" as="geometry"/>
                </mxCell>
                <mxCell id="58" value="(" style="whiteSpace=wrap;html=1;aspect=fixed;fontSize=16;" parent="1" vertex="1">
                    <mxGeometry x="-605" y="690" width="50" height="50" as="geometry"/>
                </mxCell>
                <mxCell id="59" value=")" style="whiteSpace=wrap;html=1;aspect=fixed;fontSize=16;" parent="1" vertex="1">
                    <mxGeometry x="-530" y="690" width="50" height="50" as="geometry"/>
                </mxCell>
                <mxCell id="60" value="" style="endArrow=classic;html=1;fontSize=16;" parent="1" edge="1">
                    <mxGeometry width="50" height="50" relative="1" as="geometry">
                        <mxPoint x="-490" y="680" as="sourcePoint"/>
                        <mxPoint x="-490" y="630" as="targetPoint"/>
                    </mxGeometry>
                </mxCell>
                <mxCell id="61" value="回溯" style="edgeLabel;html=1;align=center;verticalAlign=middle;resizable=0;points=[];fontSize=12;" parent="60" vertex="1" connectable="0">
                    <mxGeometry x="-0.1226" y="-1" relative="1" as="geometry">
                        <mxPoint x="-3" y="-3" as="offset"/>
                    </mxGeometry>
                </mxCell>
                <mxCell id="62" value="" style="endArrow=classic;html=1;fontSize=16;" parent="1" edge="1">
                    <mxGeometry width="50" height="50" relative="1" as="geometry">
                        <mxPoint x="-600" y="660" as="sourcePoint"/>
                        <mxPoint x="-540" y="610" as="targetPoint"/>
                    </mxGeometry>
                </mxCell>
                <mxCell id="63" value="回溯" style="edgeLabel;html=1;align=center;verticalAlign=middle;resizable=0;points=[];fontSize=12;" parent="62" vertex="1" connectable="0">
                    <mxGeometry x="-0.1226" y="-1" relative="1" as="geometry">
                        <mxPoint x="-3" y="-3" as="offset"/>
                    </mxGeometry>
                </mxCell>
                <mxCell id="65" value="&quot;(((&quot;" style="text;html=1;strokeColor=none;fillColor=none;align=center;verticalAlign=middle;whiteSpace=wrap;rounded=0;fontSize=16;" parent="1" vertex="1">
                    <mxGeometry x="-680" y="750" width="60" height="30" as="geometry"/>
                </mxCell>
                <mxCell id="66" value="&quot;(()&quot;" style="text;html=1;strokeColor=none;fillColor=none;align=center;verticalAlign=middle;whiteSpace=wrap;rounded=0;fontSize=16;" parent="1" vertex="1">
                    <mxGeometry x="-535" y="740" width="60" height="30" as="geometry"/>
                </mxCell>
                <mxCell id="67" style="edgeStyle=none;html=1;exitX=0.5;exitY=1;exitDx=0;exitDy=0;entryX=0.5;entryY=0;entryDx=0;entryDy=0;" parent="1" source="18" target="55" edge="1">
                    <mxGeometry relative="1" as="geometry"/>
                </mxCell>
                <mxCell id="71" value="4" style="ellipse;whiteSpace=wrap;html=1;aspect=fixed;fontSize=16;" parent="1" vertex="1">
                    <mxGeometry x="-685" y="810" width="60" height="60" as="geometry"/>
                </mxCell>
                <mxCell id="72" value="" style="endArrow=classic;html=1;fontSize=16;exitX=0;exitY=1;exitDx=0;exitDy=0;" parent="1" source="71" edge="1">
                    <mxGeometry width="50" height="50" relative="1" as="geometry">
                        <mxPoint x="-930" y="680" as="sourcePoint"/>
                        <mxPoint x="-750" y="920" as="targetPoint"/>
                    </mxGeometry>
                </mxCell>
                <mxCell id="73" value="" style="endArrow=classic;html=1;fontSize=16;exitX=0.5;exitY=1;exitDx=0;exitDy=0;" parent="1" source="71" edge="1">
                    <mxGeometry width="50" height="50" relative="1" as="geometry">
                        <mxPoint x="-920" y="820" as="sourcePoint"/>
                        <mxPoint x="-655" y="920" as="targetPoint"/>
                    </mxGeometry>
                </mxCell>
                <mxCell id="74" value="(" style="whiteSpace=wrap;html=1;aspect=fixed;fontSize=16;" parent="1" vertex="1">
                    <mxGeometry x="-755" y="930" width="50" height="50" as="geometry"/>
                </mxCell>
                <mxCell id="75" value=")" style="whiteSpace=wrap;html=1;aspect=fixed;fontSize=16;" parent="1" vertex="1">
                    <mxGeometry x="-680" y="930" width="50" height="50" as="geometry"/>
                </mxCell>
                <mxCell id="76" value="" style="endArrow=classic;html=1;fontSize=16;" parent="1" edge="1">
                    <mxGeometry width="50" height="50" relative="1" as="geometry">
                        <mxPoint x="-640" y="920" as="sourcePoint"/>
                        <mxPoint x="-640" y="870" as="targetPoint"/>
                    </mxGeometry>
                </mxCell>
                <mxCell id="77" value="回溯" style="edgeLabel;html=1;align=center;verticalAlign=middle;resizable=0;points=[];fontSize=12;" parent="76" vertex="1" connectable="0">
                    <mxGeometry x="-0.1226" y="-1" relative="1" as="geometry">
                        <mxPoint x="-3" y="-3" as="offset"/>
                    </mxGeometry>
                </mxCell>
                <mxCell id="78" value="" style="endArrow=classic;html=1;fontSize=16;" parent="1" edge="1">
                    <mxGeometry width="50" height="50" relative="1" as="geometry">
                        <mxPoint x="-750" y="900" as="sourcePoint"/>
                        <mxPoint x="-690" y="850" as="targetPoint"/>
                    </mxGeometry>
                </mxCell>
                <mxCell id="79" value="回溯" style="edgeLabel;html=1;align=center;verticalAlign=middle;resizable=0;points=[];fontSize=12;" parent="78" vertex="1" connectable="0">
                    <mxGeometry x="-0.1226" y="-1" relative="1" as="geometry">
                        <mxPoint x="-3" y="-3" as="offset"/>
                    </mxGeometry>
                </mxCell>
                <mxCell id="80" value="&quot;((((&quot;" style="text;html=1;strokeColor=none;fillColor=none;align=center;verticalAlign=middle;whiteSpace=wrap;rounded=0;fontSize=16;" parent="1" vertex="1">
                    <mxGeometry x="-760" y="980" width="60" height="30" as="geometry"/>
                </mxCell>
                <mxCell id="81" value="&quot;((()&quot;" style="text;html=1;strokeColor=none;fillColor=none;align=center;verticalAlign=middle;whiteSpace=wrap;rounded=0;fontSize=16;" parent="1" vertex="1">
                    <mxGeometry x="-685" y="980" width="60" height="30" as="geometry"/>
                </mxCell>
                <mxCell id="83" value="" style="group" parent="1" vertex="1" connectable="0">
                    <mxGeometry x="375" y="330" width="200" height="150" as="geometry"/>
                </mxCell>
                <mxCell id="84" value="2" style="ellipse;whiteSpace=wrap;html=1;aspect=fixed;fontSize=16;" parent="83" vertex="1">
                    <mxGeometry x="65" y="10" width="60" height="60" as="geometry"/>
                </mxCell>
                <mxCell id="85" value="" style="endArrow=classic;html=1;fontSize=16;exitX=0;exitY=1;exitDx=0;exitDy=0;" parent="83" source="84" edge="1">
                    <mxGeometry width="50" height="50" relative="1" as="geometry">
                        <mxPoint x="45" y="180" as="sourcePoint"/>
                        <mxPoint y="120" as="targetPoint"/>
                    </mxGeometry>
                </mxCell>
                <mxCell id="86" value="" style="endArrow=classic;html=1;fontSize=16;exitX=0.5;exitY=1;exitDx=0;exitDy=0;" parent="83" source="84" edge="1">
                    <mxGeometry width="50" height="50" relative="1" as="geometry">
                        <mxPoint x="55" y="320" as="sourcePoint"/>
                        <mxPoint x="95" y="120" as="targetPoint"/>
                    </mxGeometry>
                </mxCell>
                <mxCell id="87" value="(" style="whiteSpace=wrap;html=1;aspect=fixed;fontSize=16;" parent="83" vertex="1">
                    <mxGeometry x="-5" y="130" width="50" height="50" as="geometry"/>
                </mxCell>
                <mxCell id="88" value=")" style="whiteSpace=wrap;html=1;aspect=fixed;fontSize=16;" parent="83" vertex="1">
                    <mxGeometry x="70" y="130" width="50" height="50" as="geometry"/>
                </mxCell>
                <mxCell id="89" value="" style="endArrow=classic;html=1;fontSize=16;" parent="83" edge="1">
                    <mxGeometry width="50" height="50" relative="1" as="geometry">
                        <mxPoint x="110" y="120" as="sourcePoint"/>
                        <mxPoint x="110" y="70" as="targetPoint"/>
                    </mxGeometry>
                </mxCell>
                <mxCell id="90" value="回溯" style="edgeLabel;html=1;align=center;verticalAlign=middle;resizable=0;points=[];fontSize=12;" parent="89" vertex="1" connectable="0">
                    <mxGeometry x="-0.1226" y="-1" relative="1" as="geometry">
                        <mxPoint x="-3" y="-3" as="offset"/>
                    </mxGeometry>
                </mxCell>
                <mxCell id="91" value="" style="endArrow=classic;html=1;fontSize=16;" parent="83" edge="1">
                    <mxGeometry width="50" height="50" relative="1" as="geometry">
                        <mxPoint y="100" as="sourcePoint"/>
                        <mxPoint x="60" y="50" as="targetPoint"/>
                    </mxGeometry>
                </mxCell>
                <mxCell id="92" value="回溯" style="edgeLabel;html=1;align=center;verticalAlign=middle;resizable=0;points=[];fontSize=12;" parent="91" vertex="1" connectable="0">
                    <mxGeometry x="-0.1226" y="-1" relative="1" as="geometry">
                        <mxPoint x="-3" y="-3" as="offset"/>
                    </mxGeometry>
                </mxCell>
                <mxCell id="93" style="edgeStyle=none;html=1;exitX=0.5;exitY=1;exitDx=0;exitDy=0;entryX=0.5;entryY=0;entryDx=0;entryDy=0;fontSize=16;" parent="1" source="114" target="84" edge="1">
                    <mxGeometry relative="1" as="geometry"/>
                </mxCell>
                <mxCell id="94" value="&quot;(&quot;" style="text;html=1;strokeColor=none;fillColor=none;align=center;verticalAlign=middle;whiteSpace=wrap;rounded=0;fontSize=16;" parent="1" vertex="1">
                    <mxGeometry x="420" y="300" width="60" height="30" as="geometry"/>
                </mxCell>
                <mxCell id="95" value="&quot;((&quot;" style="text;html=1;strokeColor=none;fillColor=none;align=center;verticalAlign=middle;whiteSpace=wrap;rounded=0;fontSize=16;" parent="1" vertex="1">
                    <mxGeometry x="310" y="520" width="60" height="30" as="geometry"/>
                </mxCell>
                <mxCell id="96" value="&quot;()&quot;" style="text;html=1;strokeColor=none;fillColor=none;align=center;verticalAlign=middle;whiteSpace=wrap;rounded=0;fontSize=16;" parent="1" vertex="1">
                    <mxGeometry x="440" y="510" width="60" height="30" as="geometry"/>
                </mxCell>
                <mxCell id="97" value="" style="endArrow=classic;html=1;fontSize=16;" parent="1" edge="1">
                    <mxGeometry width="50" height="50" relative="1" as="geometry">
                        <mxPoint x="450" y="220" as="sourcePoint"/>
                        <mxPoint x="510" y="170" as="targetPoint"/>
                    </mxGeometry>
                </mxCell>
                <mxCell id="98" value="回溯" style="edgeLabel;html=1;align=center;verticalAlign=middle;resizable=0;points=[];fontSize=12;container=0;" parent="97" vertex="1" connectable="0">
                    <mxGeometry x="-0.1226" y="-1" relative="1" as="geometry">
                        <mxPoint x="-3" y="-3" as="offset"/>
                    </mxGeometry>
                </mxCell>
                <mxCell id="99" value="&quot;&quot;：空串" style="text;html=1;strokeColor=none;fillColor=none;align=center;verticalAlign=middle;whiteSpace=wrap;rounded=0;fontSize=16;" parent="1" vertex="1">
                    <mxGeometry x="510" y="90" width="80" height="30" as="geometry"/>
                </mxCell>
                <mxCell id="100" value="2" style="ellipse;whiteSpace=wrap;html=1;aspect=fixed;fontSize=16;" parent="1" vertex="1">
                    <mxGeometry x="600" y="340" width="60" height="60" as="geometry"/>
                </mxCell>
                <mxCell id="101" value="" style="endArrow=classic;html=1;fontSize=16;exitX=1;exitY=1;exitDx=0;exitDy=0;" parent="1" source="100" edge="1">
                    <mxGeometry width="50" height="50" relative="1" as="geometry">
                        <mxPoint x="355" y="210" as="sourcePoint"/>
                        <mxPoint x="725" y="450" as="targetPoint"/>
                    </mxGeometry>
                </mxCell>
                <mxCell id="102" value="" style="endArrow=classic;html=1;fontSize=16;exitX=0.5;exitY=1;exitDx=0;exitDy=0;" parent="1" source="100" edge="1">
                    <mxGeometry width="50" height="50" relative="1" as="geometry">
                        <mxPoint x="365" y="350" as="sourcePoint"/>
                        <mxPoint x="630" y="450" as="targetPoint"/>
                    </mxGeometry>
                </mxCell>
                <mxCell id="103" value="(" style="whiteSpace=wrap;html=1;aspect=fixed;fontSize=16;" parent="1" vertex="1">
                    <mxGeometry x="690" y="460" width="50" height="50" as="geometry"/>
                </mxCell>
                <mxCell id="104" value=")" style="whiteSpace=wrap;html=1;aspect=fixed;fontSize=16;" parent="1" vertex="1">
                    <mxGeometry x="605" y="460" width="50" height="50" as="geometry"/>
                </mxCell>
                <mxCell id="105" value="" style="endArrow=classic;html=1;fontSize=16;" parent="1" edge="1">
                    <mxGeometry width="50" height="50" relative="1" as="geometry">
                        <mxPoint x="645" y="450" as="sourcePoint"/>
                        <mxPoint x="645" y="400" as="targetPoint"/>
                    </mxGeometry>
                </mxCell>
                <mxCell id="106" value="回溯" style="edgeLabel;html=1;align=center;verticalAlign=middle;resizable=0;points=[];fontSize=12;" parent="105" vertex="1" connectable="0">
                    <mxGeometry x="-0.1226" y="-1" relative="1" as="geometry">
                        <mxPoint x="-3" y="-3" as="offset"/>
                    </mxGeometry>
                </mxCell>
                <mxCell id="107" value="" style="endArrow=classic;html=1;fontSize=16;" parent="1" edge="1">
                    <mxGeometry width="50" height="50" relative="1" as="geometry">
                        <mxPoint x="730" y="430" as="sourcePoint"/>
                        <mxPoint x="680" y="390" as="targetPoint"/>
                    </mxGeometry>
                </mxCell>
                <mxCell id="108" value="回溯" style="edgeLabel;html=1;align=center;verticalAlign=middle;resizable=0;points=[];fontSize=12;" parent="107" vertex="1" connectable="0">
                    <mxGeometry x="-0.1226" y="-1" relative="1" as="geometry">
                        <mxPoint x="-3" y="-2" as="offset"/>
                    </mxGeometry>
                </mxCell>
                <mxCell id="109" value="&quot;)(&quot;" style="text;html=1;strokeColor=none;fillColor=none;align=center;verticalAlign=middle;whiteSpace=wrap;rounded=0;fontSize=16;" parent="1" vertex="1">
                    <mxGeometry x="685" y="510" width="60" height="30" as="geometry"/>
                </mxCell>
                <mxCell id="110" value="&quot;))&quot;" style="text;html=1;strokeColor=none;fillColor=none;align=center;verticalAlign=middle;whiteSpace=wrap;rounded=0;fontSize=16;" parent="1" vertex="1">
                    <mxGeometry x="600" y="510" width="60" height="30" as="geometry"/>
                </mxCell>
                <mxCell id="111" value="1" style="ellipse;whiteSpace=wrap;html=1;aspect=fixed;fontSize=16;container=0;" parent="1" vertex="1">
                    <mxGeometry x="520" y="130" width="60" height="60" as="geometry"/>
                </mxCell>
                <mxCell id="112" value="" style="endArrow=classic;html=1;fontSize=16;exitX=0;exitY=1;exitDx=0;exitDy=0;entryX=0.5;entryY=0;entryDx=0;entryDy=0;" parent="1" source="111" target="114" edge="1">
                    <mxGeometry width="50" height="50" relative="1" as="geometry">
                        <mxPoint x="500" y="300" as="sourcePoint"/>
                        <mxPoint x="480" y="230" as="targetPoint"/>
                    </mxGeometry>
                </mxCell>
                <mxCell id="113" value="" style="endArrow=classic;html=1;fontSize=16;exitX=1;exitY=1;exitDx=0;exitDy=0;entryX=0.5;entryY=0;entryDx=0;entryDy=0;" parent="1" source="111" target="116" edge="1">
                    <mxGeometry width="50" height="50" relative="1" as="geometry">
                        <mxPoint x="510" y="440" as="sourcePoint"/>
                        <mxPoint x="550" y="230" as="targetPoint"/>
                    </mxGeometry>
                </mxCell>
                <mxCell id="114" value="(" style="whiteSpace=wrap;html=1;aspect=fixed;fontSize=16;container=0;" parent="1" vertex="1">
                    <mxGeometry x="445" y="230" width="50" height="50" as="geometry"/>
                </mxCell>
                <mxCell id="115" value="" style="edgeStyle=none;html=1;entryX=0.5;entryY=0;entryDx=0;entryDy=0;" parent="1" source="116" target="100" edge="1">
                    <mxGeometry relative="1" as="geometry"/>
                </mxCell>
                <mxCell id="116" value=")" style="whiteSpace=wrap;html=1;aspect=fixed;fontSize=16;container=0;" parent="1" vertex="1">
                    <mxGeometry x="605" y="230" width="50" height="50" as="geometry"/>
                </mxCell>
                <mxCell id="117" value="" style="endArrow=classic;html=1;fontSize=16;" parent="1" edge="1">
                    <mxGeometry width="50" height="50" relative="1" as="geometry">
                        <mxPoint x="650" y="220" as="sourcePoint"/>
                        <mxPoint x="590" y="170" as="targetPoint"/>
                    </mxGeometry>
                </mxCell>
                <mxCell id="118" value="回溯" style="edgeLabel;html=1;align=center;verticalAlign=middle;resizable=0;points=[];fontSize=12;" parent="117" vertex="1" connectable="0">
                    <mxGeometry x="-0.1226" y="-1" relative="1" as="geometry">
                        <mxPoint x="-3" y="-3" as="offset"/>
                    </mxGeometry>
                </mxCell>
                <mxCell id="119" value="&quot;)&quot;" style="text;html=1;strokeColor=none;fillColor=none;align=center;verticalAlign=middle;whiteSpace=wrap;rounded=0;fontSize=16;" parent="1" vertex="1">
                    <mxGeometry x="620" y="301" width="60" height="30" as="geometry"/>
                </mxCell>
                <mxCell id="120" value="3" style="ellipse;whiteSpace=wrap;html=1;aspect=fixed;fontSize=16;" parent="1" vertex="1">
                    <mxGeometry x="295" y="580" width="60" height="60" as="geometry"/>
                </mxCell>
                <mxCell id="121" value="" style="endArrow=classic;html=1;fontSize=16;exitX=0;exitY=1;exitDx=0;exitDy=0;" parent="1" source="120" edge="1">
                    <mxGeometry width="50" height="50" relative="1" as="geometry">
                        <mxPoint x="50" y="450" as="sourcePoint"/>
                        <mxPoint x="230" y="690" as="targetPoint"/>
                    </mxGeometry>
                </mxCell>
                <mxCell id="122" value="" style="endArrow=classic;html=1;fontSize=16;exitX=0.5;exitY=1;exitDx=0;exitDy=0;" parent="1" source="120" edge="1">
                    <mxGeometry width="50" height="50" relative="1" as="geometry">
                        <mxPoint x="60" y="590" as="sourcePoint"/>
                        <mxPoint x="325" y="690" as="targetPoint"/>
                    </mxGeometry>
                </mxCell>
                <mxCell id="123" style="edgeStyle=none;html=1;entryX=0.5;entryY=0;entryDx=0;entryDy=0;exitX=0.5;exitY=1;exitDx=0;exitDy=0;" parent="1" source="124" target="133" edge="1">
                    <mxGeometry relative="1" as="geometry"/>
                </mxCell>
                <mxCell id="124" value="(" style="whiteSpace=wrap;html=1;aspect=fixed;fontSize=16;" parent="1" vertex="1">
                    <mxGeometry x="225" y="700" width="50" height="50" as="geometry"/>
                </mxCell>
                <mxCell id="125" value=")" style="whiteSpace=wrap;html=1;aspect=fixed;fontSize=16;" parent="1" vertex="1">
                    <mxGeometry x="300" y="700" width="50" height="50" as="geometry"/>
                </mxCell>
                <mxCell id="126" value="" style="endArrow=classic;html=1;fontSize=16;" parent="1" edge="1">
                    <mxGeometry width="50" height="50" relative="1" as="geometry">
                        <mxPoint x="340" y="690" as="sourcePoint"/>
                        <mxPoint x="340" y="640" as="targetPoint"/>
                    </mxGeometry>
                </mxCell>
                <mxCell id="127" value="回溯" style="edgeLabel;html=1;align=center;verticalAlign=middle;resizable=0;points=[];fontSize=12;" parent="126" vertex="1" connectable="0">
                    <mxGeometry x="-0.1226" y="-1" relative="1" as="geometry">
                        <mxPoint x="-3" y="-3" as="offset"/>
                    </mxGeometry>
                </mxCell>
                <mxCell id="128" value="" style="endArrow=classic;html=1;fontSize=16;" parent="1" edge="1">
                    <mxGeometry width="50" height="50" relative="1" as="geometry">
                        <mxPoint x="230" y="670" as="sourcePoint"/>
                        <mxPoint x="290" y="620" as="targetPoint"/>
                    </mxGeometry>
                </mxCell>
                <mxCell id="129" value="回溯" style="edgeLabel;html=1;align=center;verticalAlign=middle;resizable=0;points=[];fontSize=12;" parent="128" vertex="1" connectable="0">
                    <mxGeometry x="-0.1226" y="-1" relative="1" as="geometry">
                        <mxPoint x="-3" y="-3" as="offset"/>
                    </mxGeometry>
                </mxCell>
                <mxCell id="130" value="&quot;(((&quot;" style="text;html=1;strokeColor=none;fillColor=none;align=center;verticalAlign=middle;whiteSpace=wrap;rounded=0;fontSize=16;" parent="1" vertex="1">
                    <mxGeometry x="150" y="760" width="60" height="30" as="geometry"/>
                </mxCell>
                <mxCell id="131" value="&quot;(()&quot;" style="text;html=1;strokeColor=none;fillColor=none;align=center;verticalAlign=middle;whiteSpace=wrap;rounded=0;fontSize=16;" parent="1" vertex="1">
                    <mxGeometry x="295" y="750" width="60" height="30" as="geometry"/>
                </mxCell>
                <mxCell id="132" style="edgeStyle=none;html=1;exitX=0.5;exitY=1;exitDx=0;exitDy=0;entryX=0.5;entryY=0;entryDx=0;entryDy=0;" parent="1" source="87" target="120" edge="1">
                    <mxGeometry relative="1" as="geometry"/>
                </mxCell>
                <mxCell id="133" value="4" style="ellipse;whiteSpace=wrap;html=1;aspect=fixed;fontSize=16;" parent="1" vertex="1">
                    <mxGeometry x="145" y="820" width="60" height="60" as="geometry"/>
                </mxCell>
                <mxCell id="134" value="" style="endArrow=classic;html=1;fontSize=16;exitX=0;exitY=1;exitDx=0;exitDy=0;" parent="1" source="133" edge="1">
                    <mxGeometry width="50" height="50" relative="1" as="geometry">
                        <mxPoint x="-100" y="690" as="sourcePoint"/>
                        <mxPoint x="80" y="930" as="targetPoint"/>
                    </mxGeometry>
                </mxCell>
                <mxCell id="135" value="" style="endArrow=classic;html=1;fontSize=16;exitX=0.5;exitY=1;exitDx=0;exitDy=0;" parent="1" source="133" edge="1">
                    <mxGeometry width="50" height="50" relative="1" as="geometry">
                        <mxPoint x="-90" y="830" as="sourcePoint"/>
                        <mxPoint x="175" y="930" as="targetPoint"/>
                    </mxGeometry>
                </mxCell>
                <mxCell id="136" value="(" style="whiteSpace=wrap;html=1;aspect=fixed;fontSize=16;" parent="1" vertex="1">
                    <mxGeometry x="75" y="940" width="50" height="50" as="geometry"/>
                </mxCell>
                <mxCell id="137" value=")" style="whiteSpace=wrap;html=1;aspect=fixed;fontSize=16;" parent="1" vertex="1">
                    <mxGeometry x="150" y="940" width="50" height="50" as="geometry"/>
                </mxCell>
                <mxCell id="138" value="" style="endArrow=classic;html=1;fontSize=16;" parent="1" edge="1">
                    <mxGeometry width="50" height="50" relative="1" as="geometry">
                        <mxPoint x="190" y="930" as="sourcePoint"/>
                        <mxPoint x="190" y="880" as="targetPoint"/>
                    </mxGeometry>
                </mxCell>
                <mxCell id="139" value="回溯" style="edgeLabel;html=1;align=center;verticalAlign=middle;resizable=0;points=[];fontSize=12;" parent="138" vertex="1" connectable="0">
                    <mxGeometry x="-0.1226" y="-1" relative="1" as="geometry">
                        <mxPoint x="-3" y="-3" as="offset"/>
                    </mxGeometry>
                </mxCell>
                <mxCell id="140" value="" style="endArrow=classic;html=1;fontSize=16;" parent="1" edge="1">
                    <mxGeometry width="50" height="50" relative="1" as="geometry">
                        <mxPoint x="80" y="910" as="sourcePoint"/>
                        <mxPoint x="140" y="860" as="targetPoint"/>
                    </mxGeometry>
                </mxCell>
                <mxCell id="141" value="回溯" style="edgeLabel;html=1;align=center;verticalAlign=middle;resizable=0;points=[];fontSize=12;" parent="140" vertex="1" connectable="0">
                    <mxGeometry x="-0.1226" y="-1" relative="1" as="geometry">
                        <mxPoint x="-3" y="-3" as="offset"/>
                    </mxGeometry>
                </mxCell>
                <mxCell id="142" value="&quot;((((&quot;" style="text;html=1;strokeColor=none;fillColor=none;align=center;verticalAlign=middle;whiteSpace=wrap;rounded=0;fontSize=16;" parent="1" vertex="1">
                    <mxGeometry x="70" y="990" width="60" height="30" as="geometry"/>
                </mxCell>
                <mxCell id="143" value="&quot;((()&quot;" style="text;html=1;strokeColor=none;fillColor=none;align=center;verticalAlign=middle;whiteSpace=wrap;rounded=0;fontSize=16;" parent="1" vertex="1">
                    <mxGeometry x="145" y="990" width="60" height="30" as="geometry"/>
                </mxCell>
                <mxCell id="144" value="穷举" style="text;html=1;strokeColor=none;fillColor=none;align=center;verticalAlign=middle;whiteSpace=wrap;rounded=0;fontSize=64;" parent="1" vertex="1">
                    <mxGeometry x="-625" y="95" width="190" height="110" as="geometry"/>
                </mxCell>
                <mxCell id="145" value="剪枝" style="text;html=1;strokeColor=none;fillColor=none;align=center;verticalAlign=middle;whiteSpace=wrap;rounded=0;fontSize=64;" parent="1" vertex="1">
                    <mxGeometry x="110" y="80" width="190" height="110" as="geometry"/>
                </mxCell>
                <mxCell id="146" value="" style="endArrow=none;html=1;fontSize=64;fontColor=#000000;strokeColor=#FF0000;" parent="1" edge="1">
                    <mxGeometry width="50" height="50" relative="1" as="geometry">
                        <mxPoint x="240" y="790" as="sourcePoint"/>
                        <mxPoint x="210" y="760" as="targetPoint"/>
                    </mxGeometry>
                </mxCell>
                <mxCell id="147" value="" style="endArrow=none;html=1;fontSize=64;strokeColor=#FF0000;" parent="1" edge="1">
                    <mxGeometry width="50" height="50" relative="1" as="geometry">
                        <mxPoint x="200" y="780" as="sourcePoint"/>
                        <mxPoint x="250" y="770" as="targetPoint"/>
                    </mxGeometry>
                </mxCell>
                <mxCell id="148" value="剪枝" style="text;html=1;strokeColor=none;fillColor=none;align=center;verticalAlign=middle;whiteSpace=wrap;rounded=0;fontSize=16;fontColor=#FF0000;" parent="1" vertex="1">
                    <mxGeometry x="215" y="800" width="60" height="30" as="geometry"/>
                </mxCell>
            </root>
        </mxGraphModel>
    </diagram>
</mxfile>